<svg width="30" height="28" viewBox="0 0 30 28" fill="none" xmlns="http://www.w3.org/2000/svg">
<path d="M17.6665 23.3333C22.6945 23.3333 25.2092 23.3333 26.7705 21.7707C28.3332 20.2093 28.3332 17.6947 28.3332 12.6667C28.3332 7.63867 28.3332 5.124 26.7705 3.56267C25.2092 2 22.6945 2 17.6665 2H12.3332C7.30517 2 4.7905 2 3.22917 3.56267C1.6665 5.124 1.6665 7.63867 1.6665 12.6667C1.6665 17.6947 1.6665 20.2093 3.22917 21.7707C4.09984 22.6427 5.2665 23.028 6.99984 23.1973" fill="white"/>
<path d="M17.6665 23.3333C22.6945 23.3333 25.2092 23.3333 26.7705 21.7707C28.3332 20.2093 28.3332 17.6947 28.3332 12.6667C28.3332 7.63867 28.3332 5.124 26.7705 3.56267C25.2092 2 22.6945 2 17.6665 2H12.3332C7.30517 2 4.7905 2 3.22917 3.56267C1.6665 5.124 1.6665 7.63867 1.6665 12.6667C1.6665 17.6947 1.6665 20.2093 3.22917 21.7707C4.09984 22.6427 5.2665 23.028 6.99984 23.1973" stroke="#0891B2" stroke-width="2.66667" stroke-linecap="round" stroke-linejoin="round"/>
<path d="M12.3337 9.31192C13.0003 7.99192 13.667 7.33325 15.0003 7.33325C16.6617 7.33325 17.667 8.65192 17.667 9.97058C17.667 11.2893 17.0003 11.3479 15.0003 12.6666V13.9999M15.0003 17.3333V17.9999V17.3333ZM17.667 23.3333C16.019 23.3333 14.203 23.9999 12.5457 24.8599C9.88165 26.2426 8.54965 26.9346 7.89365 26.4933C7.23765 26.0533 7.36165 24.6866 7.61099 21.9546L7.66699 21.3333" fill="white"/>
<path d="M12.3337 9.31192C13.0003 7.99192 13.667 7.33325 15.0003 7.33325C16.6617 7.33325 17.667 8.65192 17.667 9.97058C17.667 11.2893 17.0003 11.3479 15.0003 12.6666V13.9999M15.0003 17.3333V17.9999M17.667 23.3333C16.019 23.3333 14.203 23.9999 12.5457 24.8599C9.88165 26.2426 8.54965 26.9346 7.89365 26.4933C7.23765 26.0533 7.36165 24.6866 7.61099 21.9546L7.66699 21.3333" stroke="#0891B2" stroke-width="2.66667" stroke-linecap="round"/>
</svg>
