<svg width="24" height="24" viewBox="0 0 24 24" fill="none" xmlns="http://www.w3.org/2000/svg">
<g clip-path="url(#clip0_3955_3979)">
<g clip-path="url(#clip1_3955_3979)">
<path fill-rule="evenodd" clip-rule="evenodd" d="M8.40611 0.132845C8.58555 0.228918 8.73557 0.371874 8.84017 0.54648C8.94478 0.721087 9.00005 0.920802 9.00011 1.12435V8.27935H10.0666C10.365 8.27935 10.6511 8.39787 10.8621 8.60885C11.0731 8.81983 11.1916 9.10598 11.1916 9.40435C11.1916 9.70271 11.0731 9.98886 10.8621 10.1998C10.6511 10.4108 10.365 10.5293 10.0666 10.5293H5.63861C5.34024 10.5293 5.05409 10.4108 4.84311 10.1998C4.63214 9.98886 4.51361 9.70271 4.51361 9.40435C4.51361 9.10598 4.63214 8.81983 4.84311 8.60885C5.05409 8.39787 5.34024 8.27935 5.63861 8.27935H6.75011V3.22435L6.24911 3.55885C6.00084 3.72044 5.69886 3.7776 5.40871 3.71791C5.11856 3.65822 4.86366 3.4865 4.69934 3.24002C4.53503 2.99355 4.47455 2.69221 4.53105 2.40142C4.58755 2.11063 4.75646 1.85386 5.00111 1.68685L7.25111 0.186845C7.42058 0.0739225 7.61752 0.00911796 7.82093 -0.000656324C8.02434 -0.0104306 8.22659 0.0351919 8.40611 0.131345V0.132845ZM13.5001 7.12435C13.5001 6.82598 13.6186 6.53983 13.8296 6.32885C14.0406 6.11787 14.3267 5.99935 14.6251 5.99935H20.6251C20.8475 5.99954 21.0648 6.06563 21.2496 6.18926C21.4344 6.31289 21.5785 6.48852 21.6635 6.69396C21.7486 6.89941 21.7709 7.12545 21.7276 7.34355C21.6842 7.56165 21.5772 7.76202 21.4201 7.91935L18.5851 10.7573C19.0531 10.8713 19.4911 11.0273 19.8856 11.2358C20.9986 11.8223 21.7516 12.8303 21.7516 14.2433C21.7516 15.2228 21.4051 16.0553 20.8081 16.6838C20.2291 17.2958 19.4671 17.6633 18.6961 17.8493C17.1811 18.2138 15.3586 17.9438 14.0101 17.0588C13.7698 16.8914 13.6043 16.6369 13.5487 16.3494C13.4931 16.0619 13.5518 15.764 13.7123 15.519C13.8729 15.2741 14.1226 15.1014 14.4085 15.0377C14.6943 14.974 14.9937 15.0243 15.2431 15.1778C16.0441 15.7028 17.2231 15.8888 18.1696 15.6608C18.6286 15.5513 18.9646 15.3593 19.1746 15.1373C19.3681 14.9333 19.5016 14.6573 19.5016 14.2433C19.5016 13.7813 19.3171 13.4798 18.8356 13.2263C18.2761 12.9308 17.3656 12.7493 16.1266 12.7493C15.9042 12.7492 15.6869 12.6831 15.5021 12.5594C15.3173 12.4358 15.1732 12.2602 15.0882 12.0547C15.0031 11.8493 14.9808 11.6232 15.0242 11.4051C15.0675 11.187 15.1745 10.9867 15.3316 10.8293L17.9116 8.24934H14.6251C14.3267 8.24934 14.0406 8.13082 13.8296 7.91984C13.6186 7.70886 13.5001 7.42271 13.5001 7.12435ZM8.11961 15.7688C7.59461 15.6938 6.96461 15.9383 6.64511 16.6268C6.58486 16.7639 6.49786 16.8875 6.38921 16.9905C6.28056 17.0935 6.15245 17.1738 6.01238 17.2267C5.87231 17.2795 5.7231 17.3039 5.5735 17.2983C5.42389 17.2928 5.2769 17.2574 5.14113 17.1943C5.00537 17.1312 4.88356 17.0417 4.78285 16.9309C4.68213 16.8201 4.60454 16.6904 4.55462 16.5492C4.5047 16.4081 4.48345 16.2584 4.49212 16.109C4.50079 15.9595 4.5392 15.8133 4.60511 15.6788C5.36711 14.0378 6.98861 13.3313 8.44211 13.5413C9.94211 13.7588 11.2501 14.9588 11.2501 16.8743C11.2501 19.0238 9.61811 20.1623 8.56511 20.8958C8.10311 21.2198 7.70861 21.4913 7.40711 21.7553H10.5001C10.7985 21.7553 11.0846 21.8739 11.2956 22.0849C11.5066 22.2958 11.6251 22.582 11.6251 22.8803C11.6251 23.1787 11.5066 23.4649 11.2956 23.6758C11.0846 23.8868 10.7985 24.0053 10.5001 24.0053H5.62511C5.32674 24.0053 5.04059 23.8868 4.82961 23.6758C4.61864 23.4649 4.50011 23.1787 4.50011 22.8803C4.50011 21.8453 4.95011 21.0638 5.50511 20.4653C6.02711 19.9073 6.70511 19.4513 7.23011 19.0853C8.43011 18.2453 9.00011 17.7293 9.00011 16.8743C9.00011 16.1648 8.59961 15.8393 8.11961 15.7688Z" fill="#0891B2"/>
</g>
</g>
<defs>
<clipPath id="clip0_3955_3979">
<rect width="24" height="24" fill="white"/>
</clipPath>
<clipPath id="clip1_3955_3979">
<rect width="24" height="24" fill="white"/>
</clipPath>
</defs>
</svg>
