<svg width="24" height="24" viewBox="0 0 24 24" fill="none" xmlns="http://www.w3.org/2000/svg">
<g clip-path="url(#clip0_3955_3972)">
<path d="M3.99951 3.99973H8.00951V1.99973H1.99951V7.99972H3.99951V3.99973ZM3.99951 15.9997H1.99951V21.9997H8.00951V19.9997H3.99951V15.9997ZM19.9995 19.9997H15.9995V21.9997H21.9995V15.9997H19.9995V19.9997ZM15.9995 3.99973H19.9995V7.99972H21.9995V1.99973H15.9995V3.99973Z" fill="#0891B2"/>
<path d="M4.99951 10.9997H10.9995V4.99973H4.99951V10.9997ZM6.99951 6.99973H8.99951V8.99973H6.99951V6.99973ZM4.99951 18.9997H10.9995V12.9997H4.99951V18.9997ZM6.99951 14.9997H8.99951V16.9997H6.99951V14.9997ZM18.9995 4.99973H12.9995V10.9997H18.9995V4.99973ZM16.9995 8.99973H14.9995V6.99973H16.9995V8.99973ZM13.0095 12.9997H15.0095V14.9997H13.0095V12.9997ZM15.0095 14.9997H17.0095V16.9997H15.0095V14.9997ZM17.0095 16.9997H19.0095V18.9997H17.0095V16.9997ZM17.0095 12.9997H19.0095V14.9997H17.0095V12.9997Z" fill="#0891B2"/>
</g>
<defs>
<clipPath id="clip0_3955_3972">
<rect width="24" height="24" fill="white"/>
</clipPath>
</defs>
</svg>
