<svg width="73" height="60" viewBox="0 0 73 60" fill="none" xmlns="http://www.w3.org/2000/svg">
<path d="M66.2498 3.78613H29.5832C28.6991 3.78613 27.8513 4.13732 27.2261 4.76244C26.601 5.38757 26.2498 6.23541 26.2498 7.11947V43.7861C26.2498 44.6702 26.601 45.518 27.2261 46.1432C27.8513 46.7683 28.6991 47.1195 29.5832 47.1195H66.2498C67.1339 47.1195 67.9817 46.7683 68.6069 46.1432C69.232 45.518 69.5832 44.6702 69.5832 43.7861V7.11947C69.5832 6.23541 69.232 5.38757 68.6069 4.76244C67.9817 4.13732 67.1339 3.78613 66.2498 3.78613V3.78613ZM2.9165 47.1195H26.2498V23.7861H14.5832L2.9165 34.5561V47.1195Z" stroke="#0891B2" stroke-width="5.71429" stroke-linejoin="round"/>
<path d="M26.2498 50.4526C26.2498 52.2207 25.5475 53.9164 24.2972 55.1667C23.047 56.4169 21.3513 57.1193 19.5832 57.1193C17.8151 57.1193 16.1194 56.4169 14.8691 55.1667C13.6189 53.9164 12.9165 52.2207 12.9165 50.4526M62.9165 50.4526C62.9165 52.2207 62.2141 53.9164 60.9639 55.1667C59.7136 56.4169 58.0179 57.1193 56.2498 57.1193C54.4817 57.1193 52.786 56.4169 51.5358 55.1667C50.2855 53.9164 49.5832 52.2207 49.5832 50.4526" stroke="#0891B2" stroke-width="5.71429" stroke-linecap="round" stroke-linejoin="round"/>
</svg>
